<svg width="708" height="694" viewBox="0 0 708 694" fill="none" xmlns="http://www.w3.org/2000/svg">
<g clip-path="url(#clip0_0_19)">
<circle cx="375" cy="762.964" r="356" fill="#DBCDB3"/>
<rect width="1" height="1171.63" transform="matrix(-0.707107 -0.707107 -0.707107 0.707107 1059.47 351.021)" fill="#9C9B90"/>
<rect width="1" height="1171.63" transform="matrix(-0.707107 -0.707107 -0.707107 0.707107 1059.47 398.968)" fill="#9C9B90"/>
<rect width="1" height="1171.63" transform="matrix(-0.707107 -0.707107 -0.707107 0.707107 1036.19 327.745)" fill="#9C9B90"/>
<rect width="1" height="1171.63" transform="matrix(-0.707107 -0.707107 -0.707107 0.707107 1012.91 304.469)" fill="#9C9B90"/>
<rect width="1" height="1171.63" transform="matrix(-0.707107 -0.707107 -0.707107 0.707107 989.637 281.193)" fill="#9C9B90"/>
<rect width="1" height="1171.63" transform="matrix(-0.707107 -0.707107 -0.707107 0.707107 966.361 257.917)" fill="#9C9B90"/>
<rect width="1" height="1171.63" transform="matrix(-0.707107 -0.707107 -0.707107 0.707107 943.085 234.64)" fill="#9C9B90"/>
<rect width="1" height="1171.63" transform="matrix(-0.707107 -0.707107 -0.707107 0.707107 919.809 211.364)" fill="#9C9B90"/>
<rect width="1" height="1171.63" transform="matrix(-0.707107 -0.707107 -0.707107 0.707107 896.532 188.088)" fill="#9C9B90"/>
<rect width="1" height="1171.63" transform="matrix(-0.707107 -0.707107 -0.707107 0.707107 873.256 164.812)" fill="#9C9B90"/>
<rect width="1" height="1171.63" transform="matrix(-0.707107 -0.707107 -0.707107 0.707107 849.98 141.536)" fill="#9C9B90"/>
<rect width="1" height="1171.63" transform="matrix(-0.707107 -0.707107 -0.707107 0.707107 826.704 118.259)" fill="#9C9B90"/>
<rect width="1" height="1171.63" transform="matrix(-0.707107 -0.707107 -0.707107 0.707107 803.428 94.9832)" fill="#9C9B90"/>
<rect width="1" height="1171.63" transform="matrix(-0.707107 -0.707107 -0.707107 0.707107 780.152 71.707)" fill="#9C9B90"/>
</g>
<defs>
<clipPath id="clip0_0_19">
<rect width="708" height="694" fill="white"/>
</clipPath>
</defs>
</svg>
